<svg width="18" height="18" viewBox="0 0 18 18" fill="none" xmlns="http://www.w3.org/2000/svg">
<path d="M5.54414 14.7106L5.54423 14.7107C6.63204 15.7917 7.82728 16.7617 9.11184 17.606L9.11348 17.6071C9.21001 17.6679 9.32199 17.7001 9.43625 17.7001C9.55051 17.7001 9.66248 17.6679 9.75901 17.6071L9.75902 17.6071L9.76061 17.6061C11.047 16.7612 12.244 15.7904 13.3333 14.7082L13.3334 14.7081C15.7393 12.3088 16.975 9.93204 16.975 7.64592C16.975 3.69993 13.5886 0.500098 9.4375 0.500098C5.28637 0.500098 1.9 3.70245 1.9 7.6484C1.9 9.93454 3.13574 12.3113 5.54414 14.7106ZM9.4357 16.392C8.77495 15.9362 7.22545 14.8002 5.82377 13.2723C4.37622 11.6943 3.1027 9.71593 3.1027 7.6484C3.1027 4.37082 5.93992 1.69072 9.4375 1.69072C12.935 1.69072 15.7723 4.37572 15.7723 7.6484C15.7723 9.71219 14.4988 11.6899 13.0512 13.2682C11.647 14.7993 10.0944 15.9378 9.4357 16.392Z" fill="#F71963" stroke="#F71963" stroke-width="0.2"/>
<path d="M9.48962 4.5501H9.48955C8.82917 4.5501 8.18358 4.74356 7.6344 5.10609C7.08522 5.46863 6.65709 5.98398 6.40425 6.58704C6.1514 7.19011 6.08524 7.85375 6.21414 8.49401C6.34305 9.13426 6.66122 9.72229 7.12831 10.1838C7.5954 10.6452 8.19044 10.9594 8.83814 11.0867C9.48584 11.214 10.1572 11.1487 10.7674 10.899C11.3775 10.6493 11.8991 10.2264 12.2662 9.68371C12.6332 9.14101 12.8291 8.50291 12.8291 7.8501L12.8291 7.85002C12.8278 6.97503 12.4754 6.13638 11.8493 5.51786C11.2233 4.89935 10.3747 4.55141 9.48962 4.5501ZM9.4895 10.0758C9.04418 10.0758 8.60891 9.94535 8.23874 9.70098C7.86855 9.45661 7.58012 9.10934 7.40983 8.70316C7.23953 8.29698 7.19498 7.85007 7.28179 7.41891C7.3686 6.98775 7.58288 6.59162 7.89765 6.28065C8.21241 5.96967 8.61353 5.75782 9.05029 5.67199C9.48706 5.58616 9.93977 5.63022 10.3512 5.79857C10.7625 5.96692 11.1141 6.25197 11.3613 6.61758C11.6086 6.98317 11.7405 7.41291 11.7405 7.85248C11.7399 8.44176 11.5027 9.00685 11.0807 9.42372C10.6588 9.8406 10.0865 10.0752 9.4895 10.0758Z" fill="#F71963" stroke="#F71963" stroke-width="0.1"/>
</svg>
